HIERARCHY
ROOT Hips
{
    OFFSET 0.000000 0.000000 0.000000
    CHANNELS 6 Xposition Yposition Zposition Zrotation Xrotation Yrotation
    JOINT Spine
    {
        OFFSET 0.000002 7.164412 0.000002
        CHANNELS 3 Zrotation Xrotation Yrotation
        JOINT Spine1
        {
            OFFSET -0.000001 20.126801 -0.000002
            CHANNELS 3 Zrotation Xrotation Yrotation
            JOINT Neck
            {
                OFFSET 0.000000 21.094069 0.000000
                CHANNELS 3 Zrotation Xrotation Yrotation
                JOINT Head
                {
                    OFFSET -0.000001 12.838277 1.776080
                    CHANNELS 3 Zrotation Xrotation Yrotation
                    End Site
                    {
                        OFFSET 0.000000 17.760757 0.000000
                    }
                }
            }
            JOINT LeftShoulder
            {
                OFFSET 3.550527 15.465700 -0.908803
                CHANNELS 3 Zrotation Xrotation Yrotation
                JOINT LeftArm
                {
                    OFFSET 12.513296 -0.000006 -0.000002
                    CHANNELS 3 Zrotation Xrotation Yrotation
                    JOINT LeftForeArm
                    {
                        OFFSET 24.225996 -0.000003 0.000001
                        CHANNELS 3 Zrotation Xrotation Yrotation
                        JOINT LeftHand
                        {
                            OFFSET 20.711399 -0.000005 -0.000004
                            CHANNELS 3 Zrotation Xrotation Yrotation
                            JOINT LeftHandThumb1
                            {
                                OFFSET 2.121969 -2.411331 3.375859
                                CHANNELS 3 Zrotation Xrotation Yrotation
                                JOINT LeftHandThumb2
                                {
                                    OFFSET 2.803208 0.000003 0.000001
                                    CHANNELS 3 Zrotation Xrotation Yrotation
                                    JOINT LeftHandThumb3
                                    {
                                        OFFSET 2.395929 0.000004 -0.000003
                                        CHANNELS 3 Zrotation Xrotation Yrotation
                                        End Site
                                        {
                                            OFFSET 2.127676 0.000000 0.000000
                                        }
                                    }
                                }
                            }
                            JOINT LeftHandIndex1
                            {
                                OFFSET 8.680775 0.000005 3.375860
                                CHANNELS 3 Zrotation Xrotation Yrotation
                                JOINT LeftHandIndex2
                                {
                                    OFFSET 4.218178 -0.000000 -0.000000
                                    CHANNELS 3 Zrotation Xrotation Yrotation
                                    JOINT LeftHandIndex3
                                    {
                                        OFFSET 2.109086 -0.000004 0.000002
                                        CHANNELS 3 Zrotation Xrotation Yrotation
                                        End Site
                                        {
                                            OFFSET 1.872952 0.000000 0.000000
                                        }
                                    }
                                }
                            }
                            JOINT LeftHandMiddle1
                            {
                                OFFSET 8.680778 -0.000002 1.118860
                                CHANNELS 3 Zrotation Xrotation Yrotation
                                JOINT LeftHandMiddle2
                                {
                                    OFFSET 4.640003 -0.000004 -0.000001
                                    CHANNELS 3 Zrotation Xrotation Yrotation
                                    JOINT LeftHandMiddle3
                                    {
                                        OFFSET 2.530911 0.000002 -0.000001
                                        CHANNELS 3 Zrotation Xrotation Yrotation
                                        End Site
                                        {
                                            OFFSET 2.247544 0.000000 0.000000
                                        }
                                    }
                                }
                            }
                            JOINT LeftHandRing1
                            {
                                OFFSET 8.198517 0.000004 -1.118860
                                CHANNELS 3 Zrotation Xrotation Yrotation
                                JOINT LeftHandRing2
                                {
                                    OFFSET 4.218183 -0.000002 -0.000002
                                    CHANNELS 3 Zrotation Xrotation Yrotation
                                    JOINT LeftHandRing3
                                    {
                                        OFFSET 2.109094 0.000005 -0.000000
                                        CHANNELS 3 Zrotation Xrotation Yrotation
                                        End Site
                                        {
                                            OFFSET 1.872952 0.000000 0.000000
                                        }
                                    }
                                }
                            }
                            JOINT LeftHandPinky1
                            {
                                OFFSET 7.716254 0.000002 -3.375863
                                CHANNELS 3 Zrotation Xrotation Yrotation
                                JOINT LeftHandPinky2
                                {
                                    OFFSET 3.374536 0.000002 0.000001
                                    CHANNELS 3 Zrotation Xrotation Yrotation
                                    JOINT LeftHandPinky3
                                    {
                                        OFFSET 1.687274 -0.000002 -0.000004
                                        CHANNELS 3 Zrotation Xrotation Yrotation
                                        End Site
                                        {
                                            OFFSET 1.498360 0.000000 0.000000
                                        }
                                    }
                                }
                            }
                        }
                    }
                }
            }
            JOINT RightShoulder
            {
                OFFSET -3.550529 15.465699 -0.908801
                CHANNELS 3 Zrotation Xrotation Yrotation
                JOINT RightArm
                {
                    OFFSET -12.513299 -0.000001 -0.000000
                    CHANNELS 3 Zrotation Xrotation Yrotation
                    JOINT RightForeArm
                    {
                        OFFSET -24.226000 -0.000003 -0.000001
                        CHANNELS 3 Zrotation Xrotation Yrotation
                        JOINT RightHand
                        {
                            OFFSET -20.711397 -0.000003 -0.000002
                            CHANNELS 3 Zrotation Xrotation Yrotation
                            JOINT RightHandThumb1
                            {
                                OFFSET -2.121970 -2.411331 3.375859
                                CHANNELS 3 Zrotation Xrotation Yrotation
                                JOINT RightHandThumb2
                                {
                                    OFFSET -2.803209 -0.000004 0.000004
                                    CHANNELS 3 Zrotation Xrotation Yrotation
                                    JOINT RightHandThumb3
                                    {
                                        OFFSET -2.395928 0.000004 -0.000003
                                        CHANNELS 3 Zrotation Xrotation Yrotation
                                        End Site
                                        {
                                            OFFSET -2.127676 0.000000 0.000000
                                        }
                                    }
                                }
                            }
                            JOINT RightHandIndex1
                            {
                                OFFSET -8.680779 0.000001 3.375859
                                CHANNELS 3 Zrotation Xrotation Yrotation
                                JOINT RightHandIndex2
                                {
                                    OFFSET -4.218179 0.000003 -0.000001
                                    CHANNELS 3 Zrotation Xrotation Yrotation
                                    JOINT RightHandIndex3
                                    {
                                        OFFSET -2.109090 -0.000002 0.000000
                                        CHANNELS 3 Zrotation Xrotation Yrotation
                                        End Site
                                        {
                                            OFFSET -1.872952 0.000000 0.000000
                                        }
                                    }
                                }
                            }
                            JOINT RightHandMiddle1
                            {
                                OFFSET -8.680779 -0.000002 1.118859
                                CHANNELS 3 Zrotation Xrotation Yrotation
                                JOINT RightHandMiddle2
                                {
                                    OFFSET -4.639998 0.000003 -0.000001
                                    CHANNELS 3 Zrotation Xrotation Yrotation
                                    JOINT RightHandMiddle3
                                    {
                                        OFFSET -2.530910 -0.000000 -0.000000
                                        CHANNELS 3 Zrotation Xrotation Yrotation
                                        End Site
                                        {
                                            OFFSET -2.247544 0.000000 0.000000
                                        }
                                    }
                                }
                            }
                            JOINT RightHandRing1
                            {
                                OFFSET -8.198519 -0.000004 -1.118859
                                CHANNELS 3 Zrotation Xrotation Yrotation
                                JOINT RightHandRing2
                                {
                                    OFFSET -4.218180 -0.000005 0.000000
                                    CHANNELS 3 Zrotation Xrotation Yrotation
                                    JOINT RightHandRing3
                                    {
                                        OFFSET -2.109090 0.000002 0.000002
                                        CHANNELS 3 Zrotation Xrotation Yrotation
                                        End Site
                                        {
                                            OFFSET -1.872952 0.000000 0.000000
                                        }
                                    }
                                }
                            }
                            JOINT RightHandPinky1
                            {
                                OFFSET -7.716249 0.000004 -3.375858
                                CHANNELS 3 Zrotation Xrotation Yrotation
                                JOINT RightHandPinky2
                                {
                                    OFFSET -3.374539 0.000003 -0.000000
                                    CHANNELS 3 Zrotation Xrotation Yrotation
                                    JOINT RightHandPinky3
                                    {
                                        OFFSET -1.687270 -0.000004 -0.000001
                                        CHANNELS 3 Zrotation Xrotation Yrotation
                                        End Site
                                        {
                                            OFFSET -1.498360 0.000000 0.000000
                                        }
                                    }
                                }
                            }
                        }
                    }
                }
            }
        }
    }
    JOINT LeftUpLeg
    {
        OFFSET 8.880377 0.000003 0.000001
        CHANNELS 3 Zrotation Xrotation Yrotation
        JOINT LeftLeg
        {
            OFFSET -0.000000 -40.387413 0.000001
            CHANNELS 3 Zrotation Xrotation Yrotation
            JOINT LeftFoot
            {
                OFFSET -0.000000 -36.911304 0.000000
                CHANNELS 3 Zrotation Xrotation Yrotation
                JOINT LeftToeBase
                {
                    OFFSET 0.000003 -5.772240 13.320597
                    CHANNELS 3 Zrotation Xrotation Yrotation
                    End Site
                    {
                        OFFSET 0.000000 0.000000 3.552151
                    }
                }
            }
        }
    }
    JOINT RightUpLeg
    {
        OFFSET -8.880380 -0.000003 -0.000001
        CHANNELS 3 Zrotation Xrotation Yrotation
        JOINT RightLeg
        {
            OFFSET 0.000001 -40.387405 0.000000
            CHANNELS 3 Zrotation Xrotation Yrotation
            JOINT RightFoot
            {
                OFFSET -0.000001 -36.911304 -0.000001
                CHANNELS 3 Zrotation Xrotation Yrotation
                JOINT RightToeBase
                {
                    OFFSET 0.000000 -5.772241 13.320600
                    CHANNELS 3 Zrotation Xrotation Yrotation
                    End Site
                    {
                        OFFSET 0.000000 0.000000 3.552151
                    }
                }
            }
        }
    }
}
MOTION
Frames: 4
Frame Time: 0.013889
71.870453    83.169647    -10.155740    -3.361018    5.121154    8.643738    0.928828    -16.041916    3.357620    -0.677944    15.103729    3.291812    7.595175    -14.674634    -3.738935    4.720943    4.507977    -6.169386    0.555354    6.322822    -6.489956    -40.543709    47.348122    -23.442629    12.856874    14.381655    -42.580212    36.491695    0.163969    -10.062485    23.075956    40.348553    -40.904774    -12.888351    -0.422575    23.313858    -0.000000    0.000000    -0.000000    6.022322    17.906975    0.060169    5.729580    0.000001    -0.000006    5.729578    -0.000001    0.000011    5.800515    8.954672    0.053143    5.729578    -0.000002    0.000002    5.729578    -0.000000    -0.000001    5.800518    -8.954671    -2.537261    5.729577    0.000003    -0.000012    5.729581    0.000000    0.000004    6.022328    -17.906977    -5.028410    5.729574    -0.000002    -0.000009    5.729581    0.000002    0.000004    -0.863971    3.746564    11.407963    -13.004787    51.251842    65.941559    -6.733829    4.200005    58.189201    0.542565    27.427372    15.007476    -33.017597    32.455406    48.221802    16.712152    -2.067453    -23.230736    -0.000000    0.000000    -0.000000    -6.022324    17.906975    10.264771    -5.729579    0.000000    0.000001    -5.729576    -0.000001    -0.000001    -5.800521    8.954674    5.109327    -5.729565    -0.000001    0.000001    -5.729584    0.000000    -0.000001    -5.800514    -8.954670    4.823689    -5.729575    0.000000    0.000000    -5.729580    0.000000    0.000000    -6.022320    -17.906973    9.601260    -5.729579    0.000002    -0.000001    -5.729579    -0.000003    0.000001    6.570779    -10.949058    0.698907    -0.000000    23.194530    -0.000002    1.790821    -8.479483    -1.781483    -0.000001    2.169199    -0.000001    -4.098243    -18.368576    -6.993446    -0.000001    40.243259    0.000000    4.716117    -5.570707    -3.744965    -0.000000    -6.707521    -0.000001    
72.050110    83.149216    -10.343532    -3.599881    5.150339    8.431466    0.924409    -15.767651    3.398160    -0.906769    15.031820    3.393308    7.350766    -14.716505    -3.930162    4.820364    4.574909    -6.323503    0.684158    6.498667    -6.977963    -38.298721    48.667843    -24.259748    13.766444    14.792938    -43.817913    36.706207    -0.035819    -10.149685    23.676575    39.963306    -41.412766    -12.645509    -0.317908    23.315435    -0.000000    0.000000    -0.000000    6.022322    17.906975    0.087944    5.729577    0.000001    -0.000007    5.729577    -0.000001    0.000006    5.800514    8.954674    0.067020    5.729579    -0.000002    0.000006    5.729579    -0.000001    0.000002    5.800508    -8.954669    -2.540360    5.729581    -0.000001    0.000014    5.729577    -0.000000    -0.000010    6.022312    -17.906971    -5.034571    5.729577    -0.000003    -0.000001    5.729580    0.000005    0.000006    -1.112768    3.263741    11.609538    -13.735115    49.766529    67.250511    -6.241280    3.825505    58.614471    1.511251    27.234976    14.887666    -32.316673    33.098873    47.946281    17.099409    -2.233498    -23.216202    -0.000000    0.000000    -0.000000    -6.022318    17.906973    9.924293    -5.729580    0.000000    -0.000001    -5.729584    0.000000    -0.000001    -5.800518    8.954669    4.939087    -5.729572    -0.000001    -0.000000    -5.729582    0.000000    0.000000    -5.800517    -8.954672    4.820701    -5.729577    0.000000    -0.000001    -5.729583    0.000002    0.000000    -6.022324    -17.906975    9.595285    -5.729573    0.000000    -0.000002    -5.729583    0.000003    0.000002    6.705844    -10.928143    0.982817    0.000000    22.970831    0.000002    1.853537    -8.794710    -1.751355    -0.000001    2.455262    -0.000001    -3.548845    -19.992907    -6.187435    0.000000    42.491302    -0.000000    3.483485    -4.639948    -5.511514    0.000000    -6.732046    0.000001    
72.211197    83.141365    -10.489896    -3.789977    5.197423    8.162960    0.940706    -15.584035    3.497550    -1.200965    14.993433    3.564737    7.071931    -14.657762    -4.184057    4.893653    4.658794    -6.516871    0.615634    6.595098    -7.383522    -35.908787    49.870487    -25.129744    14.752736    15.359130    -44.833050    36.508480    -0.742412    -10.786690    24.263517    39.570244    -41.854885    -12.407222    -0.215220    23.316534    -0.000000    0.000000    -0.000000    6.022319    17.906975    -0.026290    5.729577    0.000001    -0.000001    5.729578    0.000000    -0.000008    5.800511    8.954675    0.009912    5.729579    -0.000001    -0.000000    5.729578    -0.000001    0.000003    5.800515    -8.954667    -2.569843    5.729578    -0.000003    0.000004    5.729576    0.000003    -0.000010    6.022316    -17.906975    -5.093576    5.729578    0.000002    -0.000003    5.729576    -0.000003    0.000001    -1.439695    2.913818    11.783666    -14.589120    48.212666    68.752258    -6.560445    3.963345    58.993965    3.128684    27.846621    13.513657    -31.806973    33.577469    47.573921    17.415066    -2.368746    -23.203527    -0.000000    0.000000    -0.000000    -6.022321    17.906975    9.479654    -5.729582    0.000000    -0.000001    -5.729573    -0.000001    0.000001    -5.800514    8.954670    4.716770    -5.729584    0.000000    -0.000001    -5.729579    -0.000000    -0.000001    -5.800519    -8.954673    4.823690    -5.729579    0.000003    0.000000    -5.729573    0.000000    -0.000001    -6.022318    -17.906971    9.601262    -5.729582    0.000003    -0.000001    -5.729584    -0.000000    0.000001    6.806604    -10.978903    1.280506    0.000000    22.931156    0.000001    1.975230    -9.009973    -1.715672    -0.000000    2.722427    -0.000000    -2.949373    -21.492743    -5.496587    -0.000000    44.519943    0.000000    2.407653    -3.786003    -7.491470    -0.000001    -6.439277    -0.000001    
72.408279    83.133423    -10.691056    -3.993517    5.226217    7.703082    0.972045    -15.296163    3.679944    -1.581899    14.965918    3.837587    6.550371    -14.546618    -4.568953    4.933063    4.733181    -6.773661    0.493501    6.707408    -7.790568    -32.841911    51.274906    -26.239054    16.285145    16.203522    -46.312714    36.954201    -1.001860    -11.065742    24.706038    39.258640    -42.098415    -12.251193    -0.147976    23.317030    -0.000000    0.000000    -0.000000    6.022321    17.906977    -0.373533    5.729578    0.000001    -0.000006    5.729578    -0.000000    0.000005    5.800516    8.954674    -0.163706    5.729578    -0.000001    0.000007    5.729578    0.000000    -0.000010    5.800519    -8.954665    -2.659323    5.729577    -0.000001    0.000005    5.729575    -0.000000    -0.000008    6.022318    -17.906977    -5.272535    5.729577    0.000000    0.000002    5.729582    0.000002    0.000005    -2.041488    2.392266    11.942018    -15.162275    46.085926    70.419907    -5.992503    3.517614    59.693977    5.248120    27.565626    11.518148    -32.552147    33.025719    46.840446    17.194324    -2.274178    -23.212475    -0.000000    0.000000    -0.000000    -6.022316    17.906973    8.821537    -5.729579    0.000000    0.000000    -5.729579    0.000000    -0.000002    -5.800519    8.954670    4.387710    -5.729573    0.000000    0.000001    -5.729583    -0.000000    -0.000001    -5.800514    -8.954673    4.823689    -5.729578    0.000003    -0.000001    -5.729578    -0.000000    0.000000    -6.022319    -17.906973    9.601262    -5.729575    0.000000    -0.000002    -5.729575    0.000000    -0.000001    6.933896    -11.046738    1.766542    -0.000000    22.945240    0.000000    2.132914    -9.230553    -1.623514    -0.000000    2.975145    -0.000002    -2.002209    -23.429451    -4.455683    0.000001    47.160767    -0.000001    1.571640    -2.885079    -10.353534    -0.000000    -5.296347    -0.000001    
